<svg xmlns="http://www.w3.org/2000/svg" viewBox="0 0 64 64" role="img" aria-labelledby="title">
  <title id="title">MarkEDdown favicon</title>
  <rect x="3" y="3" width="58" height="58" rx="14" fill="#09111f" />
  <rect x="16" y="12" width="32" height="40" rx="8" fill="#f8fbff" />
  <path d="M38 12h3c4 0 7 3 7 7v3h-7c-2 0-3-1-3-3v-7Z" fill="#dbe7f5" />
  <path d="M23 23h3l-1 5h6l1-5h3l-1 5h4v3h-5l-1 4h5v3h-6l-1 5h-3l1-5h-6l-1 5h-3l1-5h-4v-3h5l1-4h-5v-3h6l1-5Zm2 8-1 4h6l1-4h-6Z" fill="#2196ff" />
</svg>
