<svg xmlns="http://www.w3.org/2000/svg" viewBox="0 0 760 180" role="img" aria-labelledby="title desc">
  <title id="title">MarkEDdown monochrome logo</title>
  <desc id="desc">Monochrome MarkEDdown logo for one-color usage.</desc>
  <rect x="14" y="18" width="138" height="144" rx="34" fill="#101828" />
  <rect x="45" y="40" width="76" height="100" rx="18" fill="#ffffff" />
  <path d="M97 40h8c9 0 16 7 16 16v8h-16c-4 0-8-4-8-8V40Z" fill="#dbe7f5" />
  <path d="M63 67h8l-3 12h13l3-12h8l-3 12h9v8H87l-2 9h10v8H84l-3 12h-8l3-12H63l-3 12h-8l3-12h-9v-8h11l2-9H49v-8h11l3-12Zm6 20-2 9h13l2-9H69Z" fill="#101828" />
  <rect x="58" y="120" width="33" height="5" rx="2.5" fill="#101828" opacity=".9" />
  <rect x="58" y="109" width="44" height="5" rx="2.5" fill="#101828" opacity=".55" />
  <text x="194" y="104" fill="#101828" font-family="Inter, Segoe UI, Arial, sans-serif" font-size="70" font-weight="760" letter-spacing="-2">MarkEDdown</text>
</svg>
