<svg xmlns="http://www.w3.org/2000/svg" viewBox="0 0 760 180" role="img" aria-labelledby="title desc">
  <title id="title">MarkEDdown horizontal logo</title>
  <desc id="desc">Horizontal MarkEDdown logo with a markdown app icon and a clean wordmark.</desc>
  <defs>
    <linearGradient id="lockup-bg" x1="16" y1="12" x2="144" y2="156" gradientUnits="userSpaceOnUse">
      <stop offset="0" stop-color="#11203d" />
      <stop offset="1" stop-color="#09111f" />
    </linearGradient>
    <linearGradient id="lockup-hash" x1="52" y1="54" x2="100" y2="108" gradientUnits="userSpaceOnUse">
      <stop offset="0" stop-color="#75d7ff" />
      <stop offset="1" stop-color="#2196ff" />
    </linearGradient>
  </defs>
  <rect x="14" y="18" width="138" height="144" rx="34" fill="url(#lockup-bg)" />
  <rect x="45" y="40" width="76" height="100" rx="18" fill="#f8fbff" />
  <path d="M97 40h8c9 0 16 7 16 16v8h-16c-4 0-8-4-8-8V40Z" fill="#dbe7f5" />
  <path d="M63 67h8l-3 12h13l3-12h8l-3 12h9v8H87l-2 9h10v8H84l-3 12h-8l3-12H63l-3 12h-8l3-12h-9v-8h11l2-9H49v-8h11l3-12Zm6 20-2 9h13l2-9H69Z" fill="url(#lockup-hash)" />
  <rect x="58" y="120" width="33" height="5" rx="2.5" fill="#2196ff" opacity=".95" />
  <rect x="58" y="109" width="44" height="5" rx="2.5" fill="#2196ff" opacity=".45" />
  <g font-family="Inter, Segoe UI, Arial, sans-serif" font-size="70" font-weight="760" letter-spacing="-2">
    <text x="194" y="104" fill="#0f1728">Mark</text>
    <text x="361" y="104" fill="#2196ff">ED</text>
    <text x="451" y="104" fill="#0f1728">down</text>
  </g>
</svg>
